<?xml version="1.0" encoding="UTF-8"?><svg id="Layer_1" xmlns="http://www.w3.org/2000/svg" viewBox="0 0 20 20"><defs><style>.cls-1{fill:#292929;}</style></defs><path class="cls-1" d="M1.76,18.38c-.05,0-.11,0-.16-.02-.4-.09-.66-.49-.57-.89.6-2.73,3.31-5.03,6.61-5.58.41-.07.79.21.86.62.07.41-.21.8-.62.86-2.71.46-4.92,2.27-5.39,4.42-.08.35-.39.59-.73.59Z"/><path class="cls-1" d="M9.49,10.48c-2.49,0-4.51-2.15-4.51-4.8S7,.88,9.49.88s4.51,2.15,4.51,4.8-2.02,4.8-4.51,4.8ZM9.49,2.38c-1.66,0-3.01,1.48-3.01,3.3s1.35,3.3,3.01,3.3,3.01-1.48,3.01-3.3-1.35-3.3-3.01-3.3Z"/><path class="cls-1" d="M14.49,10.12c-2.49,0-4.5,2.01-4.5,4.5s2.01,4.5,4.5,4.5,4.5-2.01,4.5-4.5-2.01-4.5-4.5-4.5ZM16.7,15.95c.24.24.24.64,0,.88-.12.12-.28.18-.44.18s-.32-.06-.44-.18l-1.33-1.33-1.33,1.33c-.12.12-.28.18-.44.18s-.32-.06-.44-.18c-.24-.24-.24-.64,0-.88l1.33-1.33-1.33-1.33c-.24-.24-.24-.64,0-.88.24-.24.64-.24.88,0l1.33,1.33,1.33-1.33c.24-.24.64-.24.88,0,.24.24.24.64,0,.88l-1.33,1.33,1.33,1.33Z"/></svg>