<?xml version="1.0" encoding="UTF-8"?><svg id="Layer_1" xmlns="http://www.w3.org/2000/svg" viewBox="0 0 20 20"><defs><style>.cls-1{fill:#292929;}</style></defs><path class="cls-1" d="M10,11.51c.83,0,1.5-.67,1.5-1.5s-.67-1.5-1.5-1.5-1.5.67-1.5,1.5.67,1.5,1.5,1.5Z"/><path class="cls-1" d="M10,8.49c-.83,0-1.5.67-1.5,1.5s.67,1.5,1.5,1.5,1.5-.67,1.5-1.5-.67-1.5-1.5-1.5Z"/><path class="cls-1" d="M4,11.51c.83,0,1.5-.67,1.5-1.5s-.67-1.5-1.5-1.5-1.5.67-1.5,1.5.67,1.5,1.5,1.5Z"/><path class="cls-1" d="M4,11.49c.83,0,1.5-.67,1.5-1.5s-.67-1.5-1.5-1.5-1.5.67-1.5,1.5.67,1.5,1.5,1.5Z"/><path class="cls-1" d="M16,11.51c.83,0,1.5-.67,1.5-1.5s-.67-1.5-1.5-1.5-1.5.67-1.5,1.5.67,1.5,1.5,1.5Z"/><path class="cls-1" d="M16,11.49c.83,0,1.5-.67,1.5-1.5s-.67-1.5-1.5-1.5-1.5.67-1.5,1.5.67,1.5,1.5,1.5Z"/></svg>